<?xml version="1.0" encoding="UTF-8"?>
<svg id="_レイヤー_1" data-name="レイヤー 1" xmlns="http://www.w3.org/2000/svg" viewBox="0 0 595.28 841.89">
  <defs>
    <style>
      .cls-1, .cls-2, .cls-3 {
        stroke: #231815;
        stroke-miterlimit: 10;
      }

      .cls-2 {
        fill: #fff;
      }

      .cls-3 {
        fill: none;
      }
    </style>
  </defs>
  <path class="cls-2" d="m536.8,539.31c-91.82-.88-177.17,48.35-221.94,128.14l221.94-128.14Z"/>
  <path class="cls-2" d="m303.56,255.54l96.76,251.92c24.23,24.15,40.6,56.06,45.2,91.47l30.66-11.78c-38.56-45.24-59.16-101.77-60.53-159.21l-1.56-4.05c-12.45-7.27-23.88-16.79-33.66-28.49-29.16-34.89-36.6-80.72-23.78-121.07l-.79-2.05c-43.64-34.68-66.37-90.7-58.03-146.87-6.3,16.23-15.32,31.52-26.92,45.13l1.26,3.28c18.13,23.97,28.82,52.41,31.39,81.72Z"/>
  <path class="cls-2" d="m347.07,486.1c41.83,39.32,70.5,92.63,78.56,152.6l42.26-27.19c-28.66-23.09-47.18-54.19-54.86-87.56l-87.5-135.99c-51.45-18.59-88.75-62.32-100.39-114.02-46.38-41.1-75.53-97.43-83.51-157.52l-18.09,11.64c9.41,21.24,14.14,44.48,13.56,68.04l119.05,185.01c44.07,18.81,78.29,57.16,90.91,104.99Z"/>
  <path class="cls-2" d="m175.21,340.61l189.31,192.33c11.96,32.05,34.24,60.16,64.57,78.99l-23.4,23.04c-25.23-53.83-68.17-95.97-119.9-120.98l-3.04-3.09c-1.47-14.35-5.4-28.69-12.01-42.43-19.7-40.98-58.35-66.72-100.38-71.75l-1.54-1.56c-13.52-54.08-55.11-97.95-109.7-113.6,17.39.98,35.04-.91,52.22-5.83l2.46,2.5c14.32,26.43,35.79,47.93,61.41,62.39Z"/>
  <path class="cls-3" d="m328.59,659.52s21.35-73.71-58.93-128.6c0,0-42.61-24.68-87.06-50.99,0,0-50.2-34.74-81.29-87.25,0,0-40.11-72.12-82.43-76.67"/>
  <path class="cls-3" d="m37.77,298.95s76.25-8.67,116.88,79.69c0,0,17.17,46.15,35.65,94.39,0,0,25.82,55.32,72.36,94.78,0,0,64.36,51.65,61.74,94.13"/>
  <path class="cls-3" d="m511.62,554.23s-48.84-47.49-72.81-160.75c0,0-4.44-147.38-47.52-186.78,0,0-50.04-53.93-44.87-96.91"/>
  <path class="cls-3" d="m523.35,547.27s-60.2-81.98-69.13-119.73c0,0-22.37-122.97-54.27-146.03,0,0-80.99-70.91-60.55-156.9"/>
  <path class="cls-3" d="m528.65,544.02s-100.12-212.04-78.64-299.09c0,0,7.55-80.95-29.75-132.12"/>
  <path class="cls-3" d="m332.58,657.6s-28.07-99.26-47.24-131.49c0,0-28.16-55.65-68.84-87.71,0,0-103.88-111.77-98.79-171.1"/>
  <g>
    <path class="cls-2" d="m541.63,659.48c17.69-36.86,17.48-81.53-4.51-119.61-.11-.19-.22-.37-.33-.56l-221.92,128.13c.11.19.21.38.32.56,24.58,42.58,69.91,65.7,115.84,63.99,29.71-33.2,67.86-58.37,110.61-72.52Z"/>
    <path class="cls-1" d="m541.63,659.48c-42.75,14.15-80.89,39.32-110.61,72.52,20.19-.75,40.49-6.29,59.2-17.09,23.21-13.4,40.63-32.96,51.41-55.43Z"/>
  </g>
  <path class="cls-2" d="m465.25,671.85c37.82-21.83,50.77-70.19,28.94-108.01l-136.95,79.07c21.83,37.82,70.19,50.77,108.01,28.94Z"/>
</svg>