<?xml version="1.0" encoding="UTF-8"?>
<svg id="_レイヤー_1" data-name="レイヤー 1" xmlns="http://www.w3.org/2000/svg" viewBox="0 0 595.28 841.89">
  <defs>
    <style>
      .cls-1, .cls-2, .cls-3, .cls-4 {
        stroke: #231815;
        stroke-miterlimit: 10;
      }

      .cls-2, .cls-3 {
        fill: #fff;
      }

      .cls-3 {
        stroke-width: 7px;
      }

      .cls-4 {
        fill: none;
      }
    </style>
  </defs>
  <circle class="cls-3" cx="297.64" cy="409.17" r="282.73"/>
  <g>
    <path class="cls-2" d="m460.9,491.13c-67.55-.64-130.33,35.57-163.27,94.26l163.27-94.26Z"/>
    <path class="cls-2" d="m289.33,282.37l71.18,185.32c17.82,17.77,29.87,41.24,33.25,67.29l22.55-8.66c-28.37-33.28-43.52-74.87-44.53-117.12l-1.14-2.98c-9.16-5.35-17.57-12.35-24.76-20.96-21.45-25.67-26.92-59.38-17.5-89.07l-.58-1.51c-32.1-25.51-48.82-66.72-42.69-108.04-4.64,11.94-11.27,23.19-19.8,33.2l.93,2.41c13.34,17.63,21.2,38.56,23.09,60.12Z"/>
    <path class="cls-2" d="m321.33,451.98c30.77,28.92,51.87,68.14,57.79,112.26l31.09-20c-21.08-16.98-34.71-39.86-40.35-64.41l-64.37-100.04c-37.85-13.68-65.29-45.85-73.85-83.88-34.12-30.23-55.56-71.67-61.43-115.87l-13.31,8.56c6.92,15.63,10.4,32.72,9.98,50.05l87.57,136.1c32.42,13.84,57.59,42.05,66.88,77.24Z"/>
    <path class="cls-2" d="m194.91,344.96l139.26,141.48c8.8,23.58,25.19,44.25,47.5,58.11l-17.22,16.95c-18.56-39.6-50.15-70.6-88.2-89l-2.24-2.27c-1.08-10.55-3.97-21.1-8.83-31.22-14.49-30.15-42.92-49.08-73.85-52.78l-1.13-1.15c-9.94-39.78-40.54-72.05-80.7-83.57,12.79.72,25.77-.67,38.42-4.29l1.81,1.84c10.53,19.44,26.33,35.26,45.17,45.89Z"/>
    <path class="cls-4" d="m307.74,579.55s15.71-54.22-43.35-94.61c0,0-31.34-18.15-64.05-37.51,0,0-36.93-25.56-59.8-64.18,0,0-29.51-53.06-60.63-56.4"/>
    <path class="cls-4" d="m93.8,314.31s56.09-6.38,85.98,58.62c0,0,12.63,33.95,26.23,69.44,0,0,19,40.7,53.23,69.73,0,0,47.35,38,45.42,69.24"/>
    <path class="cls-4" d="m442.38,502.1s-35.93-34.94-53.56-118.25c0,0-3.27-108.42-34.95-137.4,0,0-36.81-39.68-33.01-71.29"/>
    <path class="cls-4" d="m451.01,496.98s-44.29-60.3-50.85-88.08c0,0-16.45-90.46-39.93-107.43,0,0-59.58-52.16-44.54-115.42"/>
    <path class="cls-4" d="m454.91,494.59s-73.65-155.98-57.85-220.02c0,0,5.56-59.55-21.88-97.19"/>
    <path class="cls-4" d="m310.67,578.15s-20.65-73.02-34.75-96.73c0,0-20.72-40.94-50.64-64.52,0,0-76.42-82.22-72.67-125.87"/>
    <g>
      <path class="cls-2" d="m464.46,579.53c13.01-27.12,12.86-59.98-3.32-87.99-.08-.14-.16-.27-.24-.41l-163.25,94.26c.08.14.15.28.23.42,18.08,31.32,51.43,48.33,85.21,47.07,21.86-24.42,49.92-42.94,81.37-53.35Z"/>
      <path class="cls-1" d="m464.46,579.53c-31.45,10.41-59.51,28.92-81.37,53.35,14.85-.55,29.78-4.63,43.55-12.57,17.07-9.86,29.89-24.25,37.82-40.77Z"/>
    </g>
    <path class="cls-2" d="m408.27,588.63c27.82-16.06,37.35-51.63,21.29-79.45l-100.74,58.16c16.06,27.82,51.63,37.35,79.45,21.29Z"/>
  </g>
</svg>