<?xml version="1.0" encoding="UTF-8"?>
<svg id="_レイヤー_1" data-name="レイヤー 1" xmlns="http://www.w3.org/2000/svg" viewBox="0 0 595.28 841.89">
  <defs>
    <style>
      .cls-1 {
        fill: #242424;
      }

      .cls-1, .cls-2 {
        stroke-width: 0px;
      }

      .cls-2 {
        fill: #ebebeb;
      }
    </style>
  </defs>
  <circle class="cls-1" cx="297.64" cy="435.45" r="282.73"/>
  <path class="cls-2" d="m369.73,411.72c-7-7.03-12.93-14.72-17.83-22.86,12.41-19.3,22.08-40.51,28.52-63-11.52,15.64-24.09,30.47-37.6,44.4-7.87-20.42-9.99-42.55-6.3-63.89,4.93-21.56,24.24-37.6,47.28-37.45,23.53.16,43,17.14,47.09,39.46.58-2.93.9-5.96.92-9.06.18-26.63-21.27-48.36-47.9-48.54-10.82-.07-20.83,3.43-28.91,9.39.21-.32.41-.64.62-.96-6.18,4.18-12.06,8.97-17.54,14.42-34.42,34.26-43.72,84.18-27.92,126.94-15.34,12.83-31.6,24.59-48.69,35.19-33.56-49.87-99.87-67.85-154.63-39.66-6.87,3.54-13.24,7.67-19.12,12.26,50.19-14.83,105.03,4.77,134.21,49.09-33.14,15.9-68.76,27.63-106.27,34.46,20.59,3.79,42.01,4.87,63.85,2.75,19.21-1.86,37.62-6.07,55.03-12.27,11.9,32.44,8.9,67.49-6.28,96.72-11.22,19.06-34.49,28.5-56.4,21.38-22.38-7.27-35.79-29.36-32.93-51.87-1.44,2.62-2.67,5.41-3.63,8.36-8.23,25.32,5.62,52.53,30.95,60.76,10.29,3.34,20.89,3.04,30.4-.19-.3.24-.58.49-.88.72,7.15-2.11,14.21-4.9,21.09-8.43,54.03-27.81,78.02-90.9,58.39-146.65,17.51-10.48,33.48-23.19,47.57-37.73,4.27,6.41,9.21,12.5,14.85,18.16,46.83,47.05,122.93,47.23,169.98.4,5.48-5.46,10.3-11.32,14.51-17.48-46.85,31.7-111.06,26.75-152.44-14.82"/>
</svg>